<svg id="Layer_1" data-name="Layer 1" xmlns="http://www.w3.org/2000/svg" width="743" height="254.86" viewBox="0 0 743 254.86"><title>poc-logo</title><path d="M237.69,353.29c-.3-74-21-105.42-117.09-105.72S3.5,279,3.5,353.29c0,4.79,0,9.58.3,14.07V502.43H55v-50c16.47,5.69,37.73,8.38,65.29,8.38C216.73,460.5,238,429.66,237.69,353.29ZM120.6,413.48c-53.61,0-65.29-18.26-65.29-59.59s11.68-59.3,65.29-59,65,17.67,65.28,59C185.88,396.41,174.2,413.48,120.6,413.48Z" transform="translate(-3.5 -247.57)"/><path d="M493.14,353.59c.3,76.36-20.66,107.21-117.09,107.21-96.13,0-116.8-32.94-116.8-107.21s21-106.32,117.1-105.72C472.18,248.17,492.84,279.62,493.14,353.59Zm-117.09-58.7c-53.31-.3-65.29,17.67-65.29,59s11.68,59.59,65.29,59.59,65.58-17.07,65.28-59.59C441,312.56,429.65,295.19,376.05,294.89Z" transform="translate(-3.5 -247.57)"/><path d="M746.5,381.44c-5.39,56-32.34,79.36-116.2,79.36-96.13,0-116.79-32.94-116.79-107.21s21-106.32,117.09-105.72c84.75.3,110.81,24.56,115.9,80.86h-53c-5.39-23.36-21.86-33.54-62.89-33.84-53.3-.3-65.28,17.67-65.28,59S577,413.48,630.6,413.48c40.13,0,56.9-9.58,62.59-32Z" transform="translate(-3.5 -247.57)"/></svg>